<svg width="120" height="130" viewBox="0 0 112 144" fill="none" xmlns="http://www.w3.org/2000/svg"><ellipse cx="56" cy="146" rx="52" ry="4" fill="#D0D5DD" opacity="0.6"/><g id="ear-l"><rect x="0" y="0" width="8" height="8" fill="#FFFFFF"/><rect x="8" y="0" width="8" height="8" fill="#FFFFFF"/><rect x="16" y="0" width="8" height="8" fill="#FFFFFF"/><rect x="24" y="0" width="8" height="8" fill="#FFFFFF"/><rect x="32" y="0" width="8" height="8" fill="#FFFFFF"/><rect x="40" y="0" width="8" height="8" fill="#FFFFFF"/><rect x="0" y="8" width="8" height="8" fill="#BF7C3E"/><rect x="8" y="8" width="8" height="8" fill="#BF7C3E"/><rect x="16" y="8" width="8" height="8" fill="#FFFFFF"/><rect x="24" y="8" width="8" height="8" fill="#FFFFFF"/><rect x="32" y="8" width="8" height="8" fill="#D07373"/><rect x="40" y="8" width="8" height="8" fill="#FFFFFF"/><rect x="0" y="16" width="8" height="8" fill="#BF7C3E"/><rect x="8" y="16" width="8" height="8" fill="#BF7C3E"/><rect x="16" y="16" width="8" height="8" fill="#FFFFFF"/><rect x="24" y="16" width="8" height="8" fill="#E1AF7D"/><rect x="32" y="16" width="8" height="8" fill="#D07373"/><rect x="40" y="16" width="8" height="8" fill="#FFFFFF"/><rect x="0" y="24" width="8" height="8" fill="#1D2939"/><rect x="8" y="24" width="8" height="8" fill="#BF7C3E"/><rect x="16" y="24" width="8" height="8" fill="#A6632C"/><rect x="24" y="24" width="8" height="8" fill="#FFFFFF"/><rect x="32" y="24" width="8" height="8" fill="#D07373"/><rect x="40" y="24" width="8" height="8" fill="#FFFFFF"/><rect x="0" y="32" width="8" height="8" fill="#FFFFFF"/><rect x="8" y="32" width="8" height="8" fill="#BF7C3E"/><rect x="16" y="32" width="8" height="8" fill="#BF7C3E"/><rect x="24" y="32" width="8" height="8" fill="#1D2939"/><rect x="32" y="32" width="8" height="8" fill="#BF7C3E"/><rect x="40" y="32" width="8" height="8" fill="#FFFFFF"/></g><g id="ear-r"><rect x="72" y="0" width="8" height="8" fill="#FFFFFF"/><rect x="80" y="0" width="8" height="8" fill="#FFFFFF"/><rect x="88" y="0" width="8" height="8" fill="#FFFFFF"/><rect x="96" y="0" width="8" height="8" fill="#FFFFFF"/><rect x="104" y="0" width="8" height="8" fill="#FFFFFF"/><rect x="72" y="8" width="8" height="8" fill="#FFFFFF"/><rect x="80" y="8" width="8" height="8" fill="#FFFFFF"/><rect x="88" y="8" width="8" height="8" fill="#FFFFFF"/><rect x="96" y="8" width="8" height="8" fill="#FFFFFF"/><rect x="104" y="8" width="8" height="8" fill="#FFFFFF"/><rect x="72" y="16" width="8" height="8" fill="#BF7C3E"/><rect x="80" y="16" width="8" height="8" fill="#FFFFFF"/><rect x="88" y="16" width="8" height="8" fill="#1D2939"/><rect x="96" y="16" width="8" height="8" fill="#FFFFFF"/><rect x="104" y="16" width="8" height="8" fill="#FFFFFF"/><rect x="72" y="24" width="8" height="8" fill="#BF7C3E"/><rect x="80" y="24" width="8" height="8" fill="#BF7C3E"/><rect x="88" y="24" width="8" height="8" fill="#BF7C3E"/><rect x="96" y="24" width="8" height="8" fill="#BF7C3E"/><rect x="104" y="24" width="8" height="8" fill="#FFFFFF"/><rect x="72" y="32" width="8" height="8" fill="#BF7C3E"/><rect x="80" y="32" width="8" height="8" fill="#BF7C3E"/><rect x="88" y="32" width="8" height="8" fill="#BF7C3E"/><rect x="96" y="32" width="8" height="8" fill="#1D2939"/><rect x="104" y="32" width="8" height="8" fill="#FFFFFF"/></g><g id="pet-head"><rect x="48" y="0" width="8" height="8" fill="#FFFFFF"/><rect x="56" y="0" width="8" height="8" fill="#FFFFFF"/><rect x="64" y="0" width="8" height="8" fill="#FFFFFF"/><rect x="48" y="8" width="8" height="8" fill="#FFFFFF"/><rect x="56" y="8" width="8" height="8" fill="#FFFFFF"/><rect x="64" y="8" width="8" height="8" fill="#FFFFFF"/><rect x="48" y="16" width="8" height="8" fill="#BF7C3E"/><rect x="56" y="16" width="8" height="8" fill="#FFFFFF"/><rect x="64" y="16" width="8" height="8" fill="#DAD9D9"/><rect x="48" y="24" width="8" height="8" fill="#1D2939"/><rect x="56" y="24" width="8" height="8" fill="#DAD9D9"/><rect x="64" y="24" width="8" height="8" fill="#BF7C3E"/><rect x="48" y="32" width="8" height="8" fill="#FFFFFF"/><rect x="56" y="32" width="8" height="8" fill="#FFFFFF"/><rect x="64" y="32" width="8" height="8" fill="#BF7C3E"/><rect x="0" y="40" width="8" height="8" fill="#FFFFFF"/><rect x="8" y="40" width="8" height="8" fill="#BF7C3E"/><rect x="16" y="40" width="8" height="8" fill="#1D2939"/><rect x="24" y="40" width="8" height="8" fill="#1D2939"/><rect x="32" y="40" width="8" height="8" fill="#BF7C3E"/><rect x="40" y="40" width="8" height="8" fill="#FFFFFF"/><rect x="48" y="40" width="8" height="8" fill="#FFFFFF"/><rect x="56" y="40" width="8" height="8" fill="#FFFFFF"/><rect x="64" y="40" width="8" height="8" fill="#BF7C3E"/><rect x="72" y="40" width="8" height="8" fill="#BF7C3E"/><rect x="80" y="40" width="8" height="8" fill="#BF7C3E"/><rect x="88" y="40" width="8" height="8" fill="#BF7C3E"/><rect x="96" y="40" width="8" height="8" fill="#BF7C3E"/><rect x="104" y="40" width="8" height="8" fill="#FFFFFF"/><rect x="0" y="48" width="8" height="8" fill="#FFFFFF"/><rect x="8" y="48" width="8" height="8" fill="#FFFFFF"/><rect x="16" y="48" width="8" height="8" fill="#FFFFFF"/><rect x="24" y="48" width="8" height="8" fill="#FFFFFF"/><rect x="32" y="48" width="8" height="8" fill="#FFFFFF"/><rect x="56" y="48" width="8" height="8" fill="#FFFFFF"/><rect x="80" y="48" width="8" height="8" fill="#FFFFFF"/><rect x="88" y="48" width="8" height="8" fill="#BF7C3E"/><rect x="96" y="48" width="8" height="8" fill="#BF7C3E"/><rect x="104" y="48" width="8" height="8" fill="#FFFFFF"/><rect x="0" y="56" width="8" height="8" fill="#FFFFFF"/><rect x="8" y="56" width="8" height="8" fill="#FFFFFF"/><rect x="16" y="56" width="8" height="8" fill="#FFFFFF"/><rect x="24" y="56" width="8" height="8" fill="#FFFFFF"/><rect x="32" y="56" width="8" height="8" fill="#FFFFFF"/><rect x="56" y="56" width="8" height="8" fill="#FFFFFF"/><rect x="80" y="56" width="8" height="8" fill="#FFFFFF"/><rect x="88" y="56" width="8" height="8" fill="#BF7C3E"/><rect x="96" y="56" width="8" height="8" fill="#FFFFFF"/><rect x="104" y="56" width="8" height="8" fill="#FFFFFF"/><rect x="0" y="64" width="8" height="8" fill="#FFFFFF"/><rect x="8" y="64" width="8" height="8" fill="#FFFFFF"/><rect x="16" y="64" width="8" height="8" fill="#FFFFFF"/><rect x="24" y="64" width="8" height="8" fill="#FFFFFF"/><rect x="32" y="64" width="8" height="8" fill="#FFFFFF"/><rect x="40" y="64" width="8" height="8" fill="#FFFFFF"/><rect x="48" y="64" width="8" height="8" fill="#FFFFFF"/><rect x="64" y="64" width="8" height="8" fill="#FFFFFF"/><rect x="72" y="64" width="8" height="8" fill="#FFFFFF"/><rect x="80" y="64" width="8" height="8" fill="#FFFFFF"/><rect x="88" y="64" width="8" height="8" fill="#FFFFFF"/><rect x="96" y="64" width="8" height="8" fill="#FFFFFF"/><rect x="104" y="64" width="8" height="8" fill="#FFFFFF"/></g><g id="eye-left"><rect x="40" y="48" width="8" height="8" fill="#FFFFFF"/><rect x="48" y="48" width="8" height="8" fill="#E1AF7D"/><rect x="40" y="56" width="8" height="8" fill="#FFFFFF"/><rect x="48" y="56" width="8" height="8" fill="#BF7C3E"/></g><g id="eye-right"><rect x="64" y="48" width="8" height="8" fill="#BF7C3E"/><rect x="72" y="48" width="8" height="8" fill="#A6632C"/><rect x="64" y="56" width="8" height="8" fill="#1D2939"/><rect x="72" y="56" width="8" height="8" fill="#1D2939"/></g><g id="nose"><rect x="56" y="64" width="8" height="8" fill="#FFFFFF"/></g><g id="pet-body"><rect x="0" y="72" width="8" height="8" fill="#FFFFFF"/><rect x="8" y="72" width="8" height="8" fill="#BF7C3E"/><rect x="16" y="72" width="8" height="8" fill="#FFFFFF"/><rect x="24" y="72" width="8" height="8" fill="#FFFFFF"/><rect x="32" y="72" width="8" height="8" fill="#FFFFFF"/><rect x="40" y="72" width="8" height="8" fill="#FFFFFF"/><rect x="48" y="72" width="8" height="8" fill="#BF7C3E"/><rect x="56" y="72" width="8" height="8" fill="#FFFFFF"/><rect x="64" y="72" width="8" height="8" fill="#FFFFFF"/><rect x="72" y="72" width="8" height="8" fill="#1D2939"/><rect x="80" y="72" width="8" height="8" fill="#FFFFFF"/><rect x="88" y="72" width="8" height="8" fill="#1D2939"/><rect x="96" y="72" width="8" height="8" fill="#BF7C3E"/><rect x="104" y="72" width="8" height="8" fill="#FFFFFF"/><rect x="0" y="80" width="8" height="8" fill="#FFFFFF"/><rect x="8" y="80" width="8" height="8" fill="#BF7C3E"/><rect x="16" y="80" width="8" height="8" fill="#FFFFFF"/><rect x="24" y="80" width="8" height="8" fill="#1D2939"/><rect x="32" y="80" width="8" height="8" fill="#1D2939"/><rect x="40" y="80" width="8" height="8" fill="#BF7C3E"/><rect x="48" y="80" width="8" height="8" fill="#BF7C3E"/><rect x="56" y="80" width="8" height="8" fill="#FFFFFF"/><rect x="64" y="80" width="8" height="8" fill="#BF7C3E"/><rect x="72" y="80" width="8" height="8" fill="#BF7C3E"/><rect x="80" y="80" width="8" height="8" fill="#FFFFFF"/><rect x="88" y="80" width="8" height="8" fill="#FFFFFF"/><rect x="96" y="80" width="8" height="8" fill="#BF7C3E"/><rect x="104" y="80" width="8" height="8" fill="#FFFFFF"/><rect x="0" y="88" width="8" height="8" fill="#FFFFFF"/><rect x="8" y="88" width="8" height="8" fill="#BF7C3E"/><rect x="16" y="88" width="8" height="8" fill="#FFFFFF"/><rect x="24" y="88" width="8" height="8" fill="#FFFFFF"/><rect x="32" y="88" width="8" height="8" fill="#DAD9D9"/><rect x="40" y="88" width="8" height="8" fill="#FFFFFF"/><rect x="48" y="88" width="8" height="8" fill="#FFFFFF"/><rect x="56" y="88" width="8" height="8" fill="#FFFFFF"/><rect x="64" y="88" width="8" height="8" fill="#FFFFFF"/><rect x="72" y="88" width="8" height="8" fill="#FFFFFF"/><rect x="80" y="88" width="8" height="8" fill="#FFFFFF"/><rect x="88" y="88" width="8" height="8" fill="#BF7C3E"/><rect x="96" y="88" width="8" height="8" fill="#BF7C3E"/><rect x="104" y="88" width="8" height="8" fill="#FFFFFF"/><rect x="0" y="96" width="8" height="8" fill="#FFFFFF"/><rect x="8" y="96" width="8" height="8" fill="#1D2939"/><rect x="16" y="96" width="8" height="8" fill="#DAD9D9"/><rect x="24" y="96" width="8" height="8" fill="#FFFFFF"/><rect x="32" y="96" width="8" height="8" fill="#1D2939"/><rect x="40" y="96" width="8" height="8" fill="#FFFFFF"/><rect x="48" y="96" width="8" height="8" fill="#1D2939"/><rect x="56" y="96" width="8" height="8" fill="#FFFFFF"/><rect x="64" y="96" width="8" height="8" fill="#FFFFFF"/><rect x="72" y="96" width="8" height="8" fill="#FFFFFF"/><rect x="80" y="96" width="8" height="8" fill="#FFFFFF"/><rect x="88" y="96" width="8" height="8" fill="#FFFFFF"/><rect x="96" y="96" width="8" height="8" fill="#FFFFFF"/><rect x="104" y="96" width="8" height="8" fill="#FFFFFF"/><rect x="0" y="104" width="8" height="8" fill="#FFFFFF"/><rect x="8" y="104" width="8" height="8" fill="#FFFFFF"/><rect x="16" y="104" width="8" height="8" fill="#1D2939"/><rect x="24" y="104" width="8" height="8" fill="#FFFFFF"/><rect x="32" y="104" width="8" height="8" fill="#1D2939"/><rect x="40" y="104" width="8" height="8" fill="#FFFFFF"/><rect x="48" y="104" width="8" height="8" fill="#FFFFFF"/><rect x="56" y="104" width="8" height="8" fill="#FFFFFF"/><rect x="64" y="104" width="8" height="8" fill="#BF7C3E"/><rect x="72" y="104" width="8" height="8" fill="#E1AF7D"/><rect x="80" y="104" width="8" height="8" fill="#FFFFFF"/><rect x="88" y="104" width="8" height="8" fill="#FFFFFF"/><rect x="96" y="104" width="8" height="8" fill="#FFFFFF"/><rect x="104" y="104" width="8" height="8" fill="#FFFFFF"/></g><g id="paw"><rect x="0" y="112" width="8" height="8" fill="#FFFFFF"/><rect x="8" y="112" width="8" height="8" fill="#1D2939"/><rect x="16" y="112" width="8" height="8" fill="#BF7C3E"/><rect x="24" y="112" width="8" height="8" fill="#FFFFFF"/><rect x="32" y="112" width="8" height="8" fill="#BF7C3E"/><rect x="40" y="112" width="8" height="8" fill="#1D2939"/><rect x="48" y="112" width="8" height="8" fill="#FFFFFF"/><rect x="56" y="112" width="8" height="8" fill="#FFFFFF"/><rect x="64" y="112" width="8" height="8" fill="#FFFFFF"/><rect x="72" y="112" width="8" height="8" fill="#BF7C3E"/><rect x="80" y="112" width="8" height="8" fill="#FFFFFF"/><rect x="88" y="112" width="8" height="8" fill="#DAD9D9"/><rect x="96" y="112" width="8" height="8" fill="#1D2939"/><rect x="104" y="112" width="8" height="8" fill="#FFFFFF"/><rect x="0" y="120" width="8" height="8" fill="#FFFFFF"/><rect x="8" y="120" width="8" height="8" fill="#1D2939"/><rect x="16" y="120" width="8" height="8" fill="#BF7C3E"/><rect x="24" y="120" width="8" height="8" fill="#FFFFFF"/><rect x="32" y="120" width="8" height="8" fill="#BF7C3E"/><rect x="40" y="120" width="8" height="8" fill="#1D2939"/><rect x="48" y="120" width="8" height="8" fill="#FFFFFF"/><rect x="56" y="120" width="8" height="8" fill="#FFFFFF"/><rect x="64" y="120" width="8" height="8" fill="#BF7C3E"/><rect x="72" y="120" width="8" height="8" fill="#BF7C3E"/><rect x="80" y="120" width="8" height="8" fill="#FFFFFF"/><rect x="88" y="120" width="8" height="8" fill="#1D2939"/><rect x="96" y="120" width="8" height="8" fill="#1D2939"/><rect x="104" y="120" width="8" height="8" fill="#FFFFFF"/><rect x="0" y="128" width="8" height="8" fill="#FFFFFF"/><rect x="8" y="128" width="8" height="8" fill="#DAD9D9"/><rect x="16" y="128" width="8" height="8" fill="#FFFFFF"/><rect x="24" y="128" width="8" height="8" fill="#FFFFFF"/><rect x="32" y="128" width="8" height="8" fill="#FFFFFF"/><rect x="40" y="128" width="8" height="8" fill="#DAD9D9"/><rect x="48" y="128" width="8" height="8" fill="#FFFFFF"/><rect x="56" y="128" width="8" height="8" fill="#FFFFFF"/><rect x="64" y="128" width="8" height="8" fill="#FFFFFF"/><rect x="72" y="128" width="8" height="8" fill="#FFFFFF"/><rect x="80" y="128" width="8" height="8" fill="#FFFFFF"/><rect x="88" y="128" width="8" height="8" fill="#FFFFFF"/><rect x="96" y="128" width="8" height="8" fill="#FFFFFF"/><rect x="104" y="128" width="8" height="8" fill="#FFFFFF"/><rect x="0" y="136" width="8" height="8" fill="#FFFFFF"/><rect x="8" y="136" width="8" height="8" fill="#FFFFFF"/><rect x="16" y="136" width="8" height="8" fill="#626162"/><rect x="24" y="136" width="8" height="8" fill="#FFFFFF"/><rect x="32" y="136" width="8" height="8" fill="#DAD9D9"/><rect x="40" y="136" width="8" height="8" fill="#DAD9D9"/><rect x="48" y="136" width="8" height="8" fill="#FFFFFF"/><rect x="56" y="136" width="8" height="8" fill="#FFFFFF"/><rect x="64" y="136" width="8" height="8" fill="#FFFFFF"/><rect x="72" y="136" width="8" height="8" fill="#FFFFFF"/><rect x="80" y="136" width="8" height="8" fill="#FFFFFF"/><rect x="88" y="136" width="8" height="8" fill="#FFFFFF"/><rect x="96" y="136" width="8" height="8" fill="#FFFFFF"/><rect x="104" y="136" width="8" height="8" fill="#FFFFFF"/></g><g id="pet-glasses" opacity="0"><rect x="36" y="48" width="16" height="10" rx="2" stroke="#FF9800" stroke-width="1.5" fill="none"/><rect x="60" y="48" width="16" height="10" rx="2" stroke="#FF9800" stroke-width="1.5" fill="none"/><line x1="52" y1="53" x2="60" y2="53" stroke="#FF9800" stroke-width="1.5"/></g><g id="zzz-group" opacity="0"><text x="90" y="22" font-size="8" fill="#999" font-weight="bold">z</text><text x="96" y="14" font-size="11" fill="#999" font-weight="bold" opacity="0.6">z</text><text x="100" y="6" font-size="14" fill="#999" font-weight="bold" opacity="0.3">z</text></g><defs><linearGradient id="screen-glow" x1="0" y1="1" x2="0" y2="0"><stop offset="0%" stop-color="#00D2FF" stop-opacity="1"/><stop offset="100%" stop-color="#00D2FF" stop-opacity="0"/></linearGradient></defs><g id="health-sweat" opacity="0" style="transition:opacity .3s"><ellipse cx="28" cy="28" rx="2" ry="3" fill="#5BA8E8"/><ellipse cx="85" cy="28" rx="2" ry="3" fill="#5BA8E8"/><animate attributeName="opacity" values="0.4;1;0.4" dur="1.2s" repeatCount="indefinite"/></g><g id="pet-cyber-keyboard" opacity="0"><rect x="30" y="100" width="54" height="6" rx="2" fill="#344054" stroke="#475467" stroke-width="1"/><rect id="key-light-1" x="34" y="101" width="6" height="3" rx="1" fill="#FFD700" opacity="0"/><rect id="key-light-2" x="44" y="101" width="10" height="3" rx="1" fill="#00D2FF" opacity="0"/><rect id="key-light-3" x="58" y="101" width="8" height="3" rx="1" fill="#FF3366" opacity="0"/><rect id="key-light-4" x="72" y="101" width="6" height="3" rx="1" fill="#00FF66" opacity="0"/><path d="M 35 100 L 20 80 L 90 80 L 85 100 Z" fill="url(#screen-glow)" opacity="0.12"/></g><g id="dog-glasses" opacity="0"><rect x="36" y="48" width="16" height="10" rx="2" stroke="#FF9800" stroke-width="1.5" fill="none"/><rect x="60" y="48" width="16" height="10" rx="2" stroke="#FF9800" stroke-width="1.5" fill="none"/><line x1="52" y1="53" x2="60" y2="53" stroke="#FF9800" stroke-width="1.5"/></g><g id="zzz-group" opacity="0"><text x="90" y="22" font-size="8" fill="#999" font-weight="bold">z</text><text x="96" y="14" font-size="11" fill="#999" font-weight="bold" opacity="0.6">z</text><text x="100" y="6" font-size="14" fill="#999" font-weight="bold" opacity="0.3">z</text></g><defs><linearGradient id="screen-glow" x1="0" y1="1" x2="0" y2="0"><stop offset="0%" stop-color="#00D2FF" stop-opacity="1"/><stop offset="100%" stop-color="#00D2FF" stop-opacity="0"/></linearGradient></defs><g id="health-sweat" opacity="0" style="transition:opacity .3s"><ellipse cx="28" cy="28" rx="2" ry="3" fill="#5BA8E8"/><ellipse cx="85" cy="28" rx="2" ry="3" fill="#5BA8E8"/><animate attributeName="opacity" values="0.4;1;0.4" dur="1.2s" repeatCount="indefinite"/></g><g id="pet-cyber-keyboard" opacity="0"><rect x="30" y="100" width="54" height="6" rx="2" fill="#344054" stroke="#475467" stroke-width="1"/><rect id="key-light-1" x="34" y="101" width="6" height="3" rx="1" fill="#FFD700" opacity="0"/><rect id="key-light-2" x="44" y="101" width="10" height="3" rx="1" fill="#00D2FF" opacity="0"/><rect id="key-light-3" x="58" y="101" width="8" height="3" rx="1" fill="#FF3366" opacity="0"/><rect id="key-light-4" x="72" y="101" width="6" height="3" rx="1" fill="#00FF66" opacity="0"/><path d="M 35 100 L 20 80 L 90 80 L 85 100 Z" fill="url(#screen-glow)" opacity="0.12"/></g></svg>